# xmcd
#
# Track frame offsets: 
#        150
#        22998
#        51113
#        69825
#        81519
#        94939
#        107186
#        129250
#        151787
#        164699
#        179611
#        189973
#        209577
#        222337
#        258849
#        274908
#
# Disc length: 3844 seconds
#
# Revision: 0
# Processed by: cddbd v1.5.2PL0 Copyright (c) Steve Scherf et al.
# Submitted via: ExactAudioCopyFreeDBPlugin 1.0
#
DISCID=e30f0210
DTITLE=Various Artist - Blues Collectzion Vol 1
DYEAR=1900
DGENRE=Blues
TTITLE0=Eric Clapton - The First Time I Met The Blues
TTITLE1=John Lee Hooker - Hobo Blues
TTITLE2=Sonny Terry and Brownie McGhee - Gonna Lay My Body Down
TTITLE3=Muddy Waters - Mean Red Spider
TTITLE4=Jeff Beck - New York City Blues 
TTITLE5=Howlin Wolf - My Mind Is Ramblin
TTITLE6=Big Joe Turner - Roll Me Baby
TTITLE7=Eric Clapton - Louise
TTITLE8=The Lovin’ Spoonful - Night Owl Blues
TTITLE9=B.B. King - Playin'The Cost To The Boss
TTITLE10=Memphis Slim - Gamblers Blues
TTITLE11=Muddy Waters - Goin Home
TTITLE12=Nina Simone - Blacklash Blues
TTITLE13=John Lee Hooker - Crawling King Snake
TTITLE14=B.B. King - The Thrill Is Gone
TTITLE15=Eric Clapton - Five Long Years
EXTD=
EXTT0=
EXTT1=
EXTT2=
EXTT3=
EXTT4=
EXTT5=
EXTT6=
EXTT7=
EXTT8=
EXTT9=
EXTT10=
EXTT11=
EXTT12=
EXTT13=
EXTT14=
EXTT15=
PLAYORDER=
